{
  "accessors": [
    {
      "bufferView": 2,
      "componentType": 5126,
      "count": 1080,
      "max": [
        33.020637512207031,
        0.6315150260925293,
        162.07743835449219
      ],
      "min": [
        -35.715396881103516,
        -49.594272613525391,
        -1.3219850063323975
      ],
      "type": "VEC3"
    },
    {
      "bufferView": 2,
      "byteOffset": 12960,
      "componentType": 5126,
      "count": 1080,
      "max": [
        0.95935255289077759,
        0.9621807336807251,
        0.53221219778060913
      ],
      "min": [
        -0.95935255289077759,
        -0.99915933609008789,
        -0.80714899301528931
      ],
      "type": "VEC3"
    },
    {
      "bufferView": 3,
      "componentType": 5126,
      "count": 1080,
      "max": [
        0.99984920024871826,
        0.9974324107170105,
        0.42130744457244873,
        1
      ],
      "min": [
        -0.99984920024871826,
        -0.98907160758972168,
        -0.58414041996002197,
        -1
      ],
      "type": "VEC4"
    },
    {
      "bufferView": 1,
      "componentType": 5126,
      "count": 1080,
      "max": [
        0.89990001916885376,
        0.97953999042510986
      ],
      "min": [
        0.10774999856948853,
        0.020114999264478683
      ],
      "type": "VEC2"
    },
    {
      "bufferView": 0,
      "componentType": 5125,
      "count": 3456,
      "max": [
        1079
      ],
      "min": [
        0
      ],
      "type": "SCALAR"
    },
    {
      "bufferView": 2,
      "byteOffset": 25920,
      "componentType": 5126,
      "count": 5130,
      "max": [
        39.92535400390625,
        27.767787933349609,
        109.33515167236328
      ],
      "min": [
        -59.728775024414062,
        -28.624809265136719,
        29.478080749511719
      ],
      "type": "VEC3"
    },
    {
      "bufferView": 2,
      "byteOffset": 87480,
      "componentType": 5126,
      "count": 5130,
      "max": [
        0.99942821264266968,
        0.99999123811721802,
        0.99837833642959595
      ],
      "min": [
        -0.99953752756118774,
        -0.99982261657714844,
        -0.99972009658813477
      ],
      "type": "VEC3"
    },
    {
      "bufferView": 3,
      "byteOffset": 17280,
      "componentType": 5126,
      "count": 5130,
      "max": [
        0.99956631660461426,
        0.99965333938598633,
        0.99999058246612549,
        1
      ],
      "min": [
        -0.99719458818435669,
        -0.99842417240142822,
        -0.99988299608230591,
        -1
      ],
      "type": "VEC4"
    },
    {
      "bufferView": 1,
      "byteOffset": 8640,
      "componentType": 5126,
      "count": 5130,
      "max": [
        0.96434700489044189,
        0.98644202947616577
      ],
      "min": [
        0.0010250000050291419,
        0.0010250000050291419
      ],
      "type": "VEC2"
    },
    {
      "bufferView": 0,
      "byteOffset": 13824,
      "componentType": 5125,
      "count": 21906,
      "max": [
        5129
      ],
      "min": [
        0
      ],
      "type": "SCALAR"
    },
    {
      "bufferView": 2,
      "byteOffset": 149040,
      "componentType": 5126,
      "count": 253,
      "max": [
        164.63134765625,
        162.08639526367188,
        194.084228515625
      ],
      "min": [
        -175.05343627929688,
        -177.59840393066406,
        -2.0996329784393311
      ],
      "type": "VEC3"
    },
    {
      "bufferView": 2,
      "byteOffset": 152076,
      "componentType": 5126,
      "count": 253,
      "max": [
        1,
        1,
        0.049043022096157074
      ],
      "min": [
        -1,
        -1,
        -1
      ],
      "type": "VEC3"
    },
    {
      "bufferView": 3,
      "byteOffset": 99360,
      "componentType": 5126,
      "count": 253,
      "max": [
        1,
        1,
        0.61880528926849365,
        1
      ],
      "min": [
        -1,
        -1,
        -0.61879342794418335,
        1
      ],
      "type": "VEC4"
    },
    {
      "bufferView": 1,
      "byteOffset": 49680,
      "componentType": 5126,
      "count": 253,
      "max": [
        0.85414201021194458,
        0.88929802179336548
      ],
      "min": [
        0.12174700200557709,
        0.084843002259731293
      ],
      "type": "VEC2"
    },
    {
      "bufferView": 0,
      "byteOffset": 101448,
      "componentType": 5125,
      "count": 1260,
      "max": [
        252
      ],
      "min": [
        0
      ],
      "type": "SCALAR"
    },
    {
      "bufferView": 2,
      "byteOffset": 155112,
      "componentType": 5126,
      "count": 1852,
      "max": [
        28.014461517333984,
        26.884571075439453,
        103.23006439208984
      ],
      "min": [
        -37.971633911132812,
        -42.196163177490234,
        -0.90619301795959473
      ],
      "type": "VEC3"
    },
    {
      "bufferView": 2,
      "byteOffset": 177336,
      "componentType": 5126,
      "count": 1852,
      "max": [
        0.99999773502349854,
        0.9960513710975647,
        0.98388546705245972
      ],
      "min": [
        -0.999930739402771,
        -0.99877488613128662,
        -0.99498075246810913
      ],
      "type": "VEC3"
    },
    {
      "bufferView": 3,
      "byteOffset": 103408,
      "componentType": 5126,
      "count": 1852,
      "max": [
        0.99998998641967773,
        0.99999129772186279,
        0.99372851848602295,
        1
      ],
      "min": [
        -0.99998444318771362,
        -0.99979376792907715,
        -0.99870008230209351,
        -1
      ],
      "type": "VEC4"
    },
    {
      "bufferView": 1,
      "byteOffset": 51704,
      "componentType": 5126,
      "count": 1852,
      "max": [
        0.99072998762130737,
        0.95284801721572876
      ],
      "min": [
        0.016327999532222748,
        0.051045000553131104
      ],
      "type": "VEC2"
    },
    {
      "bufferView": 0,
      "byteOffset": 106488,
      "componentType": 5125,
      "count": 8346,
      "max": [
        1851
      ],
      "min": [
        0
      ],
      "type": "SCALAR"
    }
  ],
  "asset": {
    "extras": {
      "author": "Ghirahimlink (https://sketchfab.com/Ghirahimlink)",
      "license": "CC-BY-4.0 (http://creativecommons.org/licenses/by/4.0/)",
      "source": "https://sketchfab.com/models/7f826b95aa244bbe95faae6ceec277ec",
      "title": "W.D. Gaster"
    },
    "generator": "Sketchfab-3.36.3",
    "version": "2.0"
  },
  "bufferViews": [
    {
      "buffer": 0,
      "byteLength": 139872,
      "byteOffset": 0,
      "name": "floatBufferViews",
      "target": 34963
    },
    {
      "buffer": 0,
      "byteLength": 66520,
      "byteOffset": 139872,
      "byteStride": 8,
      "name": "floatBufferViews",
      "target": 34962
    },
    {
      "buffer": 0,
      "byteLength": 199560,
      "byteOffset": 206392,
      "byteStride": 12,
      "name": "floatBufferViews",
      "target": 34962
    },
    {
      "buffer": 0,
      "byteLength": 133040,
      "byteOffset": 405952,
      "byteStride": 16,
      "name": "floatBufferViews",
      "target": 34962
    }
  ],
  "buffers": [
    {
      "byteLength": 538992,
      "uri": "scene.bin"
    }
  ],
  "extensionsUsed": [
    "KHR_materials_unlit"
  ],
  "images": [
    {
      "uri": "textures/lambert4SG_baseColor.png"
    },
    {
      "uri": "textures/lambert5SG_baseColor.png"
    },
    {
      "uri": "textures/shadow_globeinitialShadingGroup_baseColor.png"
    },
    {
      "uri": "textures/lambert3SG_baseColor.png"
    }
  ],
  "materials": [
    {
      "doubleSided": true,
      "emissiveFactor": [
        0,
        0,
        0
      ],
      "extensions": {
        "KHR_materials_unlit": {}
      },
      "name": "lambert3SG",
      "pbrMetallicRoughness": {
        "baseColorFactor": [
          1,
          1,
          1,
          1
        ],
        "baseColorTexture": {
          "index": 3,
          "texCoord": 0
        },
        "metallicFactor": 0,
        "roughnessFactor": 1
      }
    },
    {
      "alphaMode": "BLEND",
      "doubleSided": true,
      "emissiveFactor": [
        0,
        0,
        0
      ],
      "extensions": {
        "KHR_materials_unlit": {}
      },
      "name": "lambert4SG",
      "pbrMetallicRoughness": {
        "baseColorFactor": [
          1,
          1,
          1,
          1
        ],
        "baseColorTexture": {
          "index": 0,
          "texCoord": 0
        },
        "metallicFactor": 0,
        "roughnessFactor": 1
      }
    },
    {
      "doubleSided": true,
      "emissiveFactor": [
        0,
        0,
        0
      ],
      "extensions": {
        "KHR_materials_unlit": {}
      },
      "name": "lambert5SG",
      "pbrMetallicRoughness": {
        "baseColorFactor": [
          1,
          1,
          1,
          1
        ],
        "baseColorTexture": {
          "index": 1,
          "texCoord": 0
        },
        "metallicFactor": 0,
        "roughnessFactor": 1
      }
    },
    {
      "alphaMode": "BLEND",
      "doubleSided": true,
      "extensions": {
        "KHR_materials_unlit": {}
      },
      "name": "shadow_globeinitialShadingGroup",
      "pbrMetallicRoughness": {
        "baseColorFactor": [
          0,
          0,
          0,
          1
        ],
        "baseColorTexture": {
          "index": 2,
          "texCoord": 0
        },
        "metallicFactor": 0,
        "roughnessFactor": 1
      }
    }
  ],
  "meshes": [
    {
      "primitives": [
        {
          "attributes": {
            "NORMAL": 1,
            "POSITION": 0,
            "TANGENT": 2,
            "TEXCOORD_0": 3
          },
          "indices": 4,
          "material": 1,
          "mode": 4
        }
      ]
    },
    {
      "primitives": [
        {
          "attributes": {
            "NORMAL": 6,
            "POSITION": 5,
            "TANGENT": 7,
            "TEXCOORD_0": 8
          },
          "indices": 9,
          "material": 2,
          "mode": 4
        }
      ]
    },
    {
      "primitives": [
        {
          "attributes": {
            "NORMAL": 11,
            "POSITION": 10,
            "TANGENT": 12,
            "TEXCOORD_0": 13
          },
          "indices": 14,
          "material": 3,
          "mode": 4
        }
      ]
    },
    {
      "primitives": [
        {
          "attributes": {
            "NORMAL": 16,
            "POSITION": 15,
            "TANGENT": 17,
            "TEXCOORD_0": 18
          },
          "indices": 19,
          "material": 0,
          "mode": 4
        }
      ]
    }
  ],
  "nodes": [
    {
      "children": [
        1
      ],
      "name": "RootNode (gltf orientation matrix)",
      "rotation": [
        -0.70710678118654746,
        -0,
        -0,
        0.70710678118654757
      ]
    },
    {
      "children": [
        2
      ],
      "name": "RootNode (model correction matrix)"
    },
    {
      "children": [
        3,
        4,
        5,
        6
      ],
      "name": "ender_gaster.obj.cleaner.gles"
    },
    {
      "mesh": 0,
      "name": ""
    },
    {
      "mesh": 1,
      "name": ""
    },
    {
      "mesh": 2,
      "name": ""
    },
    {
      "mesh": 3,
      "name": ""
    }
  ],
  "samplers": [
    {
      "magFilter": 9729,
      "minFilter": 9987,
      "wrapS": 10497,
      "wrapT": 10497
    }
  ],
  "scene": 0,
  "scenes": [
    {
      "name": "OSG_Scene",
      "nodes": [
        0
      ]
    }
  ],
  "textures": [
    {
      "sampler": 0,
      "source": 0
    },
    {
      "sampler": 0,
      "source": 1
    },
    {
      "sampler": 0,
      "source": 2
    },
    {
      "sampler": 0,
      "source": 3
    }
  ]
}

